# xmcd CD database file
#
# Track frame offsets:
#	150
#	21314
#	35924
#	57076
#
# Disc length: 953 seconds
#
# Revision: 0
# Processed by: cddbd v1.5.1PL2 Copyright (c) Steve Scherf et al.
# Submitted via: CDex 1.51
#
DISCID=3103b704
DTITLE=童子-T - better days
DYEAR=2006
DGENRE=Hip-Hop
TTITLE0=better days feat. 加藤ミリヤ、田中ロウマ
TTITLE1=世界はおまえの手に (trio verson)
TTITLE2=better days feat. 加藤ミリヤ、田中ロウマ -Instrumental-
TTITLE3=世界はおまえの手に (trio version) -Instrumental-
EXTD=YEAR: 2006
EXTT0=
EXTT1=
EXTT2=
EXTT3=
PLAYORDER=
